<svg xmlns="http://www.w3.org/2000/svg" xmlns:xlink="http://www.w3.org/1999/xlink" width="148" height="28" viewBox="0 0 148 28"><defs><linearGradient id="a" x1="50%" x2="50%" y1="0%" y2="100%"><stop offset="0%" stop-color="#FFF"/><stop offset="100%" stop-color="#F1F1F1"/></linearGradient><rect id="b" width="148" height="28" rx="6"/><linearGradient id="c" x1="50%" x2="50%" y1="0%" y2="100%"><stop offset="0%" stop-color="#676767"/><stop offset="100%" stop-color="#646464"/></linearGradient><path id="d" d="M15.5029297,18 L15.5029297,9.54492188 L14.1904297,9.54492188 L14.1904297,18 L15.5029297,18 Z M16.9326172,18 L18.2041016,18 L18.2041016,14.3261719 C18.2041016,13.3242188 18.7783203,12.65625 19.7392578,12.65625 C20.6708984,12.65625 21.1162109,13.1953125 21.1162109,14.1621094 L21.1162109,18 L22.3876953,18 L22.3876953,13.921875 C22.3876953,12.4570312 21.5849609,11.5664062 20.1787109,11.5664062 C19.1943359,11.5664062 18.5556641,11.9589844 18.1689453,12.7089844 L18.1455078,12.7089844 L18.1455078,11.6367188 L16.9326172,11.6367188 L16.9326172,18 Z M23.5537109,13.4472656 C23.5537109,14.3261719 24.1220703,14.9121094 25.2705078,15.1933594 L26.4072266,15.4746094 C27.0751953,15.6445312 27.3271484,15.8554688 27.3271484,16.2597656 C27.3271484,16.7753906 26.8291016,17.1035156 26.0380859,17.1035156 C25.2294922,17.1035156 24.7373047,16.7695312 24.6376953,16.1601562 L23.3837891,16.1601562 C23.4775391,17.3085938 24.4912109,18.0761719 25.9736328,18.0761719 C27.5146484,18.0761719 28.5927734,17.2910156 28.5927734,16.1542969 C28.5927734,15.2167969 28.1181641,14.7539062 26.8349609,14.4433594 L25.7802734,14.1914062 C25.1064453,14.0273438 24.7900391,13.7636719 24.7900391,13.3769531 C24.7900391,12.8730469 25.2705078,12.5390625 25.9912109,12.5390625 C26.7177734,12.5390625 27.2041016,12.890625 27.2568359,13.453125 L28.4521484,13.453125 C28.4228516,12.3457031 27.4150391,11.5605469 26.0205078,11.5605469 C24.5556641,11.5605469 23.5537109,12.328125 23.5537109,13.4472656 Z M30.0048828,10.2070312 L30.0048828,11.6367188 L29.1259766,11.6367188 L29.1259766,12.6386719 L30.0048828,12.6386719 L30.0048828,16.3242188 C30.0048828,17.5546875 30.4970703,18.0410156 31.7685547,18.0410156 C32.0439453,18.0410156 32.3427734,18.0117188 32.4833984,17.9765625 L32.4833984,16.9746094 C32.4013672,16.9863281 32.1845703,17.0039062 32.0498047,17.0039062 C31.5166016,17.0039062 31.2705078,16.7460938 31.2705078,16.1953125 L31.2705078,12.6386719 L32.4892578,12.6386719 L32.4892578,11.6367188 L31.2705078,11.6367188 L31.2705078,10.2070312 L30.0048828,10.2070312 Z M35.7705078,17.0507812 C36.7138672,17.0507812 37.4287109,16.4472656 37.4287109,15.609375 L37.4287109,15.1113281 L35.8818359,15.2167969 C35.0146484,15.2695312 34.5634766,15.5917969 34.5634766,16.1542969 C34.5634766,16.6992188 35.0380859,17.0507812 35.7705078,17.0507812 Z M35.4306641,18.0644531 C34.1591797,18.0644531 33.2802734,17.3144531 33.2802734,16.1777344 C33.2802734,15.0644531 34.1416016,14.4199219 35.7119141,14.3203125 L37.4287109,14.2207031 L37.4287109,13.7285156 C37.4287109,13.0019531 36.9423828,12.6035156 36.0927734,12.6035156 C35.4013672,12.6035156 34.8974609,12.9609375 34.7861328,13.5117188 L33.5966797,13.5117188 C33.6318359,12.3867188 34.6982422,11.5546875 36.1279297,11.5546875 C37.6806641,11.5546875 38.6826172,12.375 38.6826172,13.6347656 L38.6826172,18 L37.4697266,18 L37.4697266,16.9394531 L37.4404297,16.9394531 C37.0888672,17.6308594 36.2978516,18.0644531 35.4306641,18.0644531 Z M40.0126953,18 L41.2841797,18 L41.2841797,9.1640625 L40.0126953,9.1640625 L40.0126953,18 Z M42.6904297,18 L43.9619141,18 L43.9619141,9.1640625 L42.6904297,9.1640625 L42.6904297,18 Z M53.4833984,11.6367188 L52.1650391,11.6367188 L50.5361328,16.7460938 L50.5068359,16.7460938 L48.8837891,11.6367188 L47.5419922,11.6367188 L49.8388672,18 L51.1923828,18 L53.4833984,11.6367188 Z M54.2919922,18 L55.5634766,18 L55.5634766,11.6367188 L54.2919922,11.6367188 L54.2919922,18 Z M54.9306641,10.7285156 C55.3408203,10.7285156 55.6748047,10.4003906 55.6748047,9.99609375 C55.6748047,9.58007812 55.3408203,9.26367188 54.9306641,9.26367188 C54.5205078,9.26367188 54.1865234,9.58007812 54.1865234,9.99609375 C54.1865234,10.4003906 54.5205078,10.7285156 54.9306641,10.7285156 Z M59.1201172,17.0507812 C60.0634766,17.0507812 60.7783203,16.4472656 60.7783203,15.609375 L60.7783203,15.1113281 L59.2314453,15.2167969 C58.3642578,15.2695312 57.9130859,15.5917969 57.9130859,16.1542969 C57.9130859,16.6992188 58.3876953,17.0507812 59.1201172,17.0507812 Z M58.7802734,18.0644531 C57.5087891,18.0644531 56.6298828,17.3144531 56.6298828,16.1777344 C56.6298828,15.0644531 57.4912109,14.4199219 59.0615234,14.3203125 L60.7783203,14.2207031 L60.7783203,13.7285156 C60.7783203,13.0019531 60.2919922,12.6035156 59.4423828,12.6035156 C58.7509766,12.6035156 58.2470703,12.9609375 58.1357422,13.5117188 L56.9462891,13.5117188 C56.9814453,12.3867188 58.0478516,11.5546875 59.4775391,11.5546875 C61.0302734,11.5546875 62.0322266,12.375 62.0322266,13.6347656 L62.0322266,18 L60.8193359,18 L60.8193359,16.9394531 L60.7900391,16.9394531 C60.4384766,17.6308594 59.6474609,18.0644531 58.7802734,18.0644531 Z M65.8291016,15.6445312 C65.9111328,17.1738281 67.1767578,18.140625 69.0517578,18.140625 C71.0556641,18.140625 72.3154297,17.1503906 72.3154297,15.5683594 C72.3154297,14.3320312 71.5947266,13.6347656 69.8603516,13.2246094 L68.9287109,12.9960938 C67.8388672,12.7265625 67.3935547,12.375 67.3935547,11.7773438 C67.3935547,11.0273438 68.0908203,10.5117188 69.1103516,10.5117188 C70.1298828,10.5117188 70.8271484,11.0214844 70.9033203,11.8652344 L72.1806641,11.8652344 C72.1396484,10.40625 70.9150391,9.40429688 69.1279297,9.40429688 C67.3232422,9.40429688 66.0517578,10.40625 66.0517578,11.8652344 C66.0517578,13.0429688 66.7724609,13.7695312 68.3251953,14.1445312 L69.4208984,14.4082031 C70.5166016,14.6777344 70.9794922,15.0703125 70.9794922,15.7265625 C70.9794922,16.4824219 70.2119141,17.0332031 69.1455078,17.0332031 C68.0322266,17.0332031 67.2177734,16.4824219 67.1240234,15.6445312 L65.8291016,15.6445312 Z M74.6943359,14.3847656 L74.6884766,14.3847656 L74.6884766,9.1640625 L73.4169922,9.1640625 L73.4169922,18 L74.6884766,18 L74.6884766,15.6914062 L75.2392578,15.1523438 L77.4365234,18 L78.9013672,18 L76.1474609,14.3789062 L78.8076172,11.6367188 L77.3134766,11.6367188 L74.6943359,14.3847656 Z M82.2353516,12.5917969 C81.3212891,12.5917969 80.6591797,13.2597656 80.5888672,14.2382812 L83.8173828,14.2382812 C83.7880859,13.2480469 83.1611328,12.5917969 82.2353516,12.5917969 Z M83.8115234,16.1367188 L85.0244141,16.1367188 C84.8427734,17.2792969 83.7236328,18.0761719 82.2939453,18.0761719 C80.4482422,18.0761719 79.2998047,16.8339844 79.2998047,14.8417969 C79.2998047,12.8496094 80.4599609,11.5546875 82.2412109,11.5546875 C83.9873047,11.5546875 85.0888672,12.7675781 85.0888672,14.6953125 L85.0888672,15.140625 L80.5830078,15.140625 L80.5830078,15.2167969 C80.5830078,16.3183594 81.2744141,17.0449219 82.3173828,17.0449219 C83.0556641,17.0449219 83.6357422,16.6933594 83.8115234,16.1367188 Z M86.4892578,10.2070312 L86.4892578,11.6367188 L85.6103516,11.6367188 L85.6103516,12.6386719 L86.4892578,12.6386719 L86.4892578,16.3242188 C86.4892578,17.5546875 86.9814453,18.0410156 88.2529297,18.0410156 C88.5283203,18.0410156 88.8271484,18.0117188 88.9677734,17.9765625 L88.9677734,16.9746094 C88.8857422,16.9863281 88.6689453,17.0039062 88.5341797,17.0039062 C88.0009766,17.0039062 87.7548828,16.7460938 87.7548828,16.1953125 L87.7548828,12.6386719 L88.9736328,12.6386719 L88.9736328,11.6367188 L87.7548828,11.6367188 L87.7548828,10.2070312 L86.4892578,10.2070312 Z M95.4833984,13.8105469 C95.3720703,12.5859375 94.3642578,11.5546875 92.7412109,11.5546875 C90.9423828,11.5546875 89.7587891,12.8378906 89.7587891,14.8183594 C89.7587891,16.8339844 90.9482422,18.0761719 92.7529297,18.0761719 C94.2822266,18.0761719 95.3486328,17.1914062 95.4951172,15.8613281 L94.2822266,15.8613281 C94.1298828,16.6054688 93.5849609,17.0097656 92.7587891,17.0097656 C91.7392578,17.0097656 91.0478516,16.1894531 91.0478516,14.8183594 C91.0478516,13.4824219 91.7275391,12.6269531 92.7529297,12.6269531 C93.6259766,12.6269531 94.1533203,13.1367188 94.2705078,13.8105469 L95.4833984,13.8105469 Z M96.4794922,18 L97.7509766,18 L97.7509766,14.3554688 C97.7509766,13.3359375 98.3486328,12.65625 99.3388672,12.65625 C100.270508,12.65625 100.745117,13.2304688 100.745117,14.1796875 L100.745117,18 L102.016602,18 L102.016602,13.9335938 C102.016602,12.4980469 101.178711,11.5664062 99.7783203,11.5664062 C98.8056641,11.5664062 98.1494141,11.9589844 97.7685547,12.7089844 L97.7392578,12.7089844 L97.7392578,9.1640625 L96.4794922,9.1640625 L96.4794922,18 Z M106.569336,11.5722656 C108.192383,11.5722656 109.258789,12.84375 109.258789,14.8183594 C109.258789,16.7871094 108.198242,18.0644531 106.598633,18.0644531 C105.68457,18.0644531 104.963867,17.6601562 104.583008,16.9570312 L104.55957,16.9570312 L104.55957,20.109375 L103.288086,20.109375 L103.288086,11.6367188 L104.512695,11.6367188 L104.512695,12.6914062 L104.541992,12.6914062 C104.899414,12.0058594 105.68457,11.5722656 106.569336,11.5722656 Z M106.24707,16.9863281 C107.27832,16.9863281 107.958008,16.1367188 107.958008,14.8183594 C107.958008,13.5058594 107.27832,12.6503906 106.24707,12.6503906 C105.239258,12.6503906 104.553711,13.5234375 104.547852,14.8183594 C104.553711,16.1191406 105.233398,16.9863281 106.24707,16.9863281 Z M112.481445,17.0507812 C113.424805,17.0507812 114.139648,16.4472656 114.139648,15.609375 L114.139648,15.1113281 L112.592773,15.2167969 C111.725586,15.2695312 111.274414,15.5917969 111.274414,16.1542969 C111.274414,16.6992188 111.749023,17.0507812 112.481445,17.0507812 Z M112.141602,18.0644531 C110.870117,18.0644531 109.991211,17.3144531 109.991211,16.1777344 C109.991211,15.0644531 110.852539,14.4199219 112.422852,14.3203125 L114.139648,14.2207031 L114.139648,13.7285156 C114.139648,13.0019531 113.65332,12.6035156 112.803711,12.6035156 C112.112305,12.6035156 111.608398,12.9609375 111.49707,13.5117188 L110.307617,13.5117188 C110.342773,12.3867188 111.40918,11.5546875 112.838867,11.5546875 C114.391602,11.5546875 115.393555,12.375 115.393555,13.6347656 L115.393555,18 L114.180664,18 L114.180664,16.9394531 L114.151367,16.9394531 C113.799805,17.6308594 113.008789,18.0644531 112.141602,18.0644531 Z M122.108398,13.8105469 C121.99707,12.5859375 120.989258,11.5546875 119.366211,11.5546875 C117.567383,11.5546875 116.383789,12.8378906 116.383789,14.8183594 C116.383789,16.8339844 117.573242,18.0761719 119.37793,18.0761719 C120.907227,18.0761719 121.973633,17.1914062 122.120117,15.8613281 L120.907227,15.8613281 C120.754883,16.6054688 120.209961,17.0097656 119.383789,17.0097656 C118.364258,17.0097656 117.672852,16.1894531 117.672852,14.8183594 C117.672852,13.4824219 118.352539,12.6269531 119.37793,12.6269531 C120.250977,12.6269531 120.77832,13.1367188 120.895508,13.8105469 L122.108398,13.8105469 Z M124.381836,14.3847656 L124.375977,14.3847656 L124.375977,9.1640625 L123.104492,9.1640625 L123.104492,18 L124.375977,18 L124.375977,15.6914062 L124.926758,15.1523438 L127.124023,18 L128.588867,18 L125.834961,14.3789062 L128.495117,11.6367188 L127.000977,11.6367188 L124.381836,14.3847656 Z M129.168945,13.4472656 C129.168945,14.3261719 129.737305,14.9121094 130.885742,15.1933594 L132.022461,15.4746094 C132.69043,15.6445312 132.942383,15.8554688 132.942383,16.2597656 C132.942383,16.7753906 132.444336,17.1035156 131.65332,17.1035156 C130.844727,17.1035156 130.352539,16.7695312 130.25293,16.1601562 L128.999023,16.1601562 C129.092773,17.3085938 130.106445,18.0761719 131.588867,18.0761719 C133.129883,18.0761719 134.208008,17.2910156 134.208008,16.1542969 C134.208008,15.2167969 133.733398,14.7539062 132.450195,14.4433594 L131.395508,14.1914062 C130.72168,14.0273438 130.405273,13.7636719 130.405273,13.3769531 C130.405273,12.8730469 130.885742,12.5390625 131.606445,12.5390625 C132.333008,12.5390625 132.819336,12.890625 132.87207,13.453125 L134.067383,13.453125 C134.038086,12.3457031 133.030273,11.5605469 131.635742,11.5605469 C130.170898,11.5605469 129.168945,12.328125 129.168945,13.4472656 Z"/><filter id="e" width="100.8%" height="109.1%" x="-.4%" y="-4.6%" filterUnits="objectBoundingBox"><feGaussianBlur in="SourceAlpha" result="shadowBlurInner1" stdDeviation=".25"/><feOffset dy=".5" in="shadowBlurInner1" result="shadowOffsetInner1"/><feComposite in="shadowOffsetInner1" in2="SourceAlpha" k2="-1" k3="1" operator="arithmetic" result="shadowInnerInner1"/><feColorMatrix in="shadowInnerInner1" values="0 0 0 0 0 0 0 0 0 0 0 0 0 0 0 0 0 0 0.302423007 0"/></filter></defs><g fill="none" fill-rule="evenodd"><use fill="url(#a)" xlink:href="#b"/><rect width="147.5" height="27.5" x=".25" y=".25" stroke="#8D8D8D" stroke-width=".5" rx="6"/><g><use fill="url(#c)" xlink:href="#d"/><use fill="#000" filter="url(#e)" xlink:href="#d"/></g></g></svg>