<svg xmlns="http://www.w3.org/2000/svg" xmlns:xlink="http://www.w3.org/1999/xlink" width="124" height="28" viewBox="0 0 124 28"><defs><linearGradient id="a" x1="50%" x2="50%" y1="0%" y2="100%"><stop offset="0%" stop-color="#FFF"/><stop offset="100%" stop-color="#F1F1F1"/></linearGradient><rect id="b" width="124" height="28" rx="6"/><linearGradient id="c" x1="50%" x2="50%" y1="0%" y2="100%"><stop offset="0%" stop-color="#676767"/><stop offset="100%" stop-color="#646464"/></linearGradient><path id="d" d="M12.5644531,15.6445312 C12.6464844,17.1738281 13.9121094,18.140625 15.7871094,18.140625 C17.7910156,18.140625 19.0507812,17.1503906 19.0507812,15.5683594 C19.0507812,14.3320312 18.3300781,13.6347656 16.5957031,13.2246094 L15.6640625,12.9960938 C14.5742188,12.7265625 14.1289062,12.375 14.1289062,11.7773438 C14.1289062,11.0273438 14.8261719,10.5117188 15.8457031,10.5117188 C16.8652344,10.5117188 17.5625,11.0214844 17.6386719,11.8652344 L18.9160156,11.8652344 C18.875,10.40625 17.6503906,9.40429688 15.8632812,9.40429688 C14.0585938,9.40429688 12.7871094,10.40625 12.7871094,11.8652344 C12.7871094,13.0429688 13.5078125,13.7695312 15.0605469,14.1445312 L16.15625,14.4082031 C17.2519531,14.6777344 17.7148438,15.0703125 17.7148438,15.7265625 C17.7148438,16.4824219 16.9472656,17.0332031 15.8808594,17.0332031 C14.7675781,17.0332031 13.953125,16.4824219 13.859375,15.6445312 L12.5644531,15.6445312 Z M25.5253906,11.6367188 L24.2539062,11.6367188 L24.2539062,15.3046875 C24.2539062,16.3125 23.6738281,16.9746094 22.7246094,16.9746094 C21.8046875,16.9746094 21.3417969,16.453125 21.3417969,15.4746094 L21.3417969,11.6367188 L20.0703125,11.6367188 L20.0703125,15.7148438 C20.0703125,17.1738281 20.9140625,18.0703125 22.3027344,18.0703125 C23.2753906,18.0703125 23.9199219,17.6660156 24.2890625,16.9101562 L24.3125,16.9101562 L24.3125,18 L25.5253906,18 L25.5253906,11.6367188 Z M30.1074219,11.5722656 C31.7304688,11.5722656 32.796875,12.84375 32.796875,14.8183594 C32.796875,16.7871094 31.7363281,18.0644531 30.1367188,18.0644531 C29.2226562,18.0644531 28.5019531,17.6601562 28.1210938,16.9570312 L28.0976562,16.9570312 L28.0976562,20.109375 L26.8261719,20.109375 L26.8261719,11.6367188 L28.0507812,11.6367188 L28.0507812,12.6914062 L28.0800781,12.6914062 C28.4375,12.0058594 29.2226562,11.5722656 30.1074219,11.5722656 Z M29.7851562,16.9863281 C30.8164062,16.9863281 31.4960938,16.1367188 31.4960938,14.8183594 C31.4960938,13.5058594 30.8164062,12.6503906 29.7851562,12.6503906 C28.7773438,12.6503906 28.0917969,13.5234375 28.0859375,14.8183594 C28.0917969,16.1191406 28.7714844,16.9863281 29.7851562,16.9863281 Z M37.0917969,11.5722656 C38.7148438,11.5722656 39.78125,12.84375 39.78125,14.8183594 C39.78125,16.7871094 38.7207031,18.0644531 37.1210938,18.0644531 C36.2070312,18.0644531 35.4863281,17.6601562 35.1054688,16.9570312 L35.0820312,16.9570312 L35.0820312,20.109375 L33.8105469,20.109375 L33.8105469,11.6367188 L35.0351562,11.6367188 L35.0351562,12.6914062 L35.0644531,12.6914062 C35.421875,12.0058594 36.2070312,11.5722656 37.0917969,11.5722656 Z M36.7695312,16.9863281 C37.8007812,16.9863281 38.4804688,16.1367188 38.4804688,14.8183594 C38.4804688,13.5058594 37.8007812,12.6503906 36.7695312,12.6503906 C35.7617188,12.6503906 35.0761719,13.5234375 35.0703125,14.8183594 C35.0761719,16.1191406 35.7558594,16.9863281 36.7695312,16.9863281 Z M43.5195312,18.0761719 C41.6796875,18.0761719 40.5078125,16.8222656 40.5078125,14.8183594 C40.5078125,12.8203125 41.6855469,11.5546875 43.5195312,11.5546875 C45.3535156,11.5546875 46.5253906,12.8144531 46.5253906,14.8183594 C46.5253906,16.8222656 45.359375,18.0761719 43.5195312,18.0761719 Z M43.5195312,17.0214844 C44.5976562,17.0214844 45.2363281,16.2070312 45.2363281,14.8183594 C45.2363281,13.4296875 44.5976562,12.609375 43.5195312,12.609375 C42.4414062,12.609375 41.796875,13.4355469 41.796875,14.8183594 C41.796875,16.2070312 42.4414062,17.0214844 43.5195312,17.0214844 Z M47.5449219,18 L48.8164062,18 L48.8164062,14.203125 C48.8164062,13.3066406 49.34375,12.7265625 50.1816406,12.7265625 C50.4335938,12.7265625 50.65625,12.7617188 50.7617188,12.8027344 L50.7617188,11.6132812 C50.6621094,11.5898438 50.5039062,11.5722656 50.3164062,11.5722656 C49.5664062,11.5722656 48.9804688,12 48.78125,12.7089844 L48.7578125,12.7089844 L48.7578125,11.6367188 L47.5449219,11.6367188 L47.5449219,18 Z M51.9570312,10.2070312 L51.9570312,11.6367188 L51.078125,11.6367188 L51.078125,12.6386719 L51.9570312,12.6386719 L51.9570312,16.3242188 C51.9570312,17.5546875 52.4492188,18.0410156 53.7207031,18.0410156 C53.9960938,18.0410156 54.2949219,18.0117188 54.4355469,17.9765625 L54.4355469,16.9746094 C54.3535156,16.9863281 54.1367188,17.0039062 54.0019531,17.0039062 C53.46875,17.0039062 53.2226562,16.7460938 53.2226562,16.1953125 L53.2226562,12.6386719 L54.4414062,12.6386719 L54.4414062,11.6367188 L53.2226562,11.6367188 L53.2226562,10.2070312 L51.9570312,10.2070312 Z M63.6816406,11.6367188 L62.3632812,11.6367188 L60.734375,16.7460938 L60.7050781,16.7460938 L59.0820312,11.6367188 L57.7402344,11.6367188 L60.0371094,18 L61.390625,18 L63.6816406,11.6367188 Z M64.4902344,18 L65.7617188,18 L65.7617188,11.6367188 L64.4902344,11.6367188 L64.4902344,18 Z M65.1289062,10.7285156 C65.5390625,10.7285156 65.8730469,10.4003906 65.8730469,9.99609375 C65.8730469,9.58007812 65.5390625,9.26367188 65.1289062,9.26367188 C64.71875,9.26367188 64.3847656,9.58007812 64.3847656,9.99609375 C64.3847656,10.4003906 64.71875,10.7285156 65.1289062,10.7285156 Z M69.3183594,17.0507812 C70.2617188,17.0507812 70.9765625,16.4472656 70.9765625,15.609375 L70.9765625,15.1113281 L69.4296875,15.2167969 C68.5625,15.2695312 68.1113281,15.5917969 68.1113281,16.1542969 C68.1113281,16.6992188 68.5859375,17.0507812 69.3183594,17.0507812 Z M68.9785156,18.0644531 C67.7070312,18.0644531 66.828125,17.3144531 66.828125,16.1777344 C66.828125,15.0644531 67.6894531,14.4199219 69.2597656,14.3203125 L70.9765625,14.2207031 L70.9765625,13.7285156 C70.9765625,13.0019531 70.4902344,12.6035156 69.640625,12.6035156 C68.9492188,12.6035156 68.4453125,12.9609375 68.3339844,13.5117188 L67.1445312,13.5117188 C67.1796875,12.3867188 68.2460938,11.5546875 69.6757812,11.5546875 C71.2285156,11.5546875 72.2304688,12.375 72.2304688,13.6347656 L72.2304688,18 L71.0175781,18 L71.0175781,16.9394531 L70.9882812,16.9394531 C70.6367188,17.6308594 69.8457031,18.0644531 68.9785156,18.0644531 Z M76.4023438,9.54492188 L79.7128906,9.54492188 C81.3535156,9.54492188 82.5019531,10.6757812 82.5019531,12.3222656 C82.5019531,13.9746094 81.3300781,15.1113281 79.671875,15.1113281 L77.7148438,15.1113281 L77.7148438,18 L76.4023438,18 L76.4023438,9.54492188 Z M77.7148438,10.6523438 L77.7148438,14.0097656 L79.3671875,14.0097656 C80.5039062,14.0097656 81.1601562,13.3945312 81.1601562,12.328125 C81.1601562,11.2617188 80.5097656,10.6523438 79.3671875,10.6523438 L77.7148438,10.6523438 Z M85.7304688,17.0507812 C86.6738281,17.0507812 87.3886719,16.4472656 87.3886719,15.609375 L87.3886719,15.1113281 L85.8417969,15.2167969 C84.9746094,15.2695312 84.5234375,15.5917969 84.5234375,16.1542969 C84.5234375,16.6992188 84.9980469,17.0507812 85.7304688,17.0507812 Z M85.390625,18.0644531 C84.1191406,18.0644531 83.2402344,17.3144531 83.2402344,16.1777344 C83.2402344,15.0644531 84.1015625,14.4199219 85.671875,14.3203125 L87.3886719,14.2207031 L87.3886719,13.7285156 C87.3886719,13.0019531 86.9023438,12.6035156 86.0527344,12.6035156 C85.3613281,12.6035156 84.8574219,12.9609375 84.7460938,13.5117188 L83.5566406,13.5117188 C83.5917969,12.3867188 84.6582031,11.5546875 86.0878906,11.5546875 C87.640625,11.5546875 88.6425781,12.375 88.6425781,13.6347656 L88.6425781,18 L87.4296875,18 L87.4296875,16.9394531 L87.4003906,16.9394531 C87.0488281,17.6308594 86.2578125,18.0644531 85.390625,18.0644531 Z M90.5585938,20.3144531 C91.859375,20.3144531 92.4628906,19.8222656 93.0078125,18.2929688 L95.3925781,11.6367188 L94.0566406,11.6367188 L92.421875,16.8398438 L92.3925781,16.8398438 L90.7578125,11.6367188 L89.3925781,11.6367188 L91.7011719,18.0175781 L91.6015625,18.3457031 C91.3847656,19.0195312 91.0507812,19.2773438 90.4472656,19.2773438 C90.3359375,19.2773438 90.1367188,19.2714844 90.0429688,19.2480469 L90.0429688,20.2792969 C90.1425781,20.296875 90.453125,20.3144531 90.5585938,20.3144531 Z M96.2949219,9.54492188 L99.6054688,9.54492188 C101.246094,9.54492188 102.394531,10.6757812 102.394531,12.3222656 C102.394531,13.9746094 101.222656,15.1113281 99.5644531,15.1113281 L97.6074219,15.1113281 L97.6074219,18 L96.2949219,18 L96.2949219,9.54492188 Z M97.6074219,10.6523438 L97.6074219,14.0097656 L99.2597656,14.0097656 C100.396484,14.0097656 101.052734,13.3945312 101.052734,12.328125 C101.052734,11.2617188 100.402344,10.6523438 99.2597656,10.6523438 L97.6074219,10.6523438 Z M105.623047,17.0507812 C106.566406,17.0507812 107.28125,16.4472656 107.28125,15.609375 L107.28125,15.1113281 L105.734375,15.2167969 C104.867188,15.2695312 104.416016,15.5917969 104.416016,16.1542969 C104.416016,16.6992188 104.890625,17.0507812 105.623047,17.0507812 Z M105.283203,18.0644531 C104.011719,18.0644531 103.132812,17.3144531 103.132812,16.1777344 C103.132812,15.0644531 103.994141,14.4199219 105.564453,14.3203125 L107.28125,14.2207031 L107.28125,13.7285156 C107.28125,13.0019531 106.794922,12.6035156 105.945312,12.6035156 C105.253906,12.6035156 104.75,12.9609375 104.638672,13.5117188 L103.449219,13.5117188 C103.484375,12.3867188 104.550781,11.5546875 105.980469,11.5546875 C107.533203,11.5546875 108.535156,12.375 108.535156,13.6347656 L108.535156,18 L107.322266,18 L107.322266,16.9394531 L107.292969,16.9394531 C106.941406,17.6308594 106.150391,18.0644531 105.283203,18.0644531 Z M109.865234,18 L111.136719,18 L111.136719,9.1640625 L109.865234,9.1640625 L109.865234,18 Z"/><filter id="e" width="101%" height="109%" x="-.5%" y="-4.5%" filterUnits="objectBoundingBox"><feGaussianBlur in="SourceAlpha" result="shadowBlurInner1" stdDeviation=".25"/><feOffset dy=".5" in="shadowBlurInner1" result="shadowOffsetInner1"/><feComposite in="shadowOffsetInner1" in2="SourceAlpha" k2="-1" k3="1" operator="arithmetic" result="shadowInnerInner1"/><feColorMatrix in="shadowInnerInner1" values="0 0 0 0 0 0 0 0 0 0 0 0 0 0 0 0 0 0 0.302423007 0"/></filter></defs><g fill="none" fill-rule="evenodd"><use fill="url(#a)" xlink:href="#b"/><rect width="123.5" height="27.5" x=".25" y=".25" stroke="#8D8D8D" stroke-width=".5" rx="6"/><g><use fill="url(#c)" xlink:href="#d"/><use fill="#000" filter="url(#e)" xlink:href="#d"/></g></g></svg>