<svg xmlns="http://www.w3.org/2000/svg" xmlns:xlink="http://www.w3.org/1999/xlink" width="124" height="28" viewBox="0 0 124 28"><defs><linearGradient id="a" x1="50%" x2="50%" y1="0%" y2="100%"><stop offset="0%" stop-color="#FFF"/><stop offset="100%" stop-color="#F1F1F1"/></linearGradient><rect id="b" width="124" height="28" rx="6"/><linearGradient id="c" x1="50%" x2="50%" y1="0%" y2="100%"><stop offset="0%" stop-color="#676767"/><stop offset="100%" stop-color="#646464"/></linearGradient><path id="d" d="M20.2080078,14.484375 L20.2080078,13.6230469 L16.7275391,13.6230469 L16.7275391,14.6835938 L18.9130859,14.6835938 L18.9130859,14.8300781 C18.8955078,16.1132812 17.9462891,16.9921875 16.5751953,16.9921875 C14.9638672,16.9921875 13.9619141,15.7441406 13.9619141,13.7226562 C13.9619141,11.7363281 14.9345703,10.5527344 16.5517578,10.5527344 C17.6533203,10.5527344 18.4794922,11.15625 18.7958984,12.2050781 L20.1435547,12.2050781 C19.8505859,10.5175781 18.4267578,9.40429688 16.5458984,9.40429688 C14.1376953,9.40429688 12.6201172,11.0683594 12.6201172,13.734375 C12.6201172,16.4472656 14.1435547,18.140625 16.5634766,18.140625 C18.8544922,18.140625 20.2080078,16.7753906 20.2080078,14.484375 Z M24.0107422,12.5917969 C23.0966797,12.5917969 22.4345703,13.2597656 22.3642578,14.2382812 L25.5927734,14.2382812 C25.5634766,13.2480469 24.9365234,12.5917969 24.0107422,12.5917969 Z M25.5869141,16.1367188 L26.7998047,16.1367188 C26.6181641,17.2792969 25.4990234,18.0761719 24.0693359,18.0761719 C22.2236328,18.0761719 21.0751953,16.8339844 21.0751953,14.8417969 C21.0751953,12.8496094 22.2353516,11.5546875 24.0166016,11.5546875 C25.7626953,11.5546875 26.8642578,12.7675781 26.8642578,14.6953125 L26.8642578,15.140625 L22.3583984,15.140625 L22.3583984,15.2167969 C22.3583984,16.3183594 23.0498047,17.0449219 24.0927734,17.0449219 C24.8310547,17.0449219 25.4111328,16.6933594 25.5869141,16.1367188 Z M28.2646484,10.2070312 L28.2646484,11.6367188 L27.3857422,11.6367188 L27.3857422,12.6386719 L28.2646484,12.6386719 L28.2646484,16.3242188 C28.2646484,17.5546875 28.7568359,18.0410156 30.0283203,18.0410156 C30.3037109,18.0410156 30.6025391,18.0117188 30.7431641,17.9765625 L30.7431641,16.9746094 C30.6611328,16.9863281 30.4443359,17.0039062 30.3095703,17.0039062 C29.7763672,17.0039062 29.5302734,16.7460938 29.5302734,16.1953125 L29.5302734,12.6386719 L30.7490234,12.6386719 L30.7490234,11.6367188 L29.5302734,11.6367188 L29.5302734,10.2070312 L28.2646484,10.2070312 Z M39.9658203,16.8632812 L36.0283203,16.8632812 L36.0283203,9.54492188 L34.7158203,9.54492188 L34.7158203,18 L39.9658203,18 L39.9658203,16.8632812 Z M43.1708984,17.0507812 C44.1142578,17.0507812 44.8291016,16.4472656 44.8291016,15.609375 L44.8291016,15.1113281 L43.2822266,15.2167969 C42.4150391,15.2695312 41.9638672,15.5917969 41.9638672,16.1542969 C41.9638672,16.6992188 42.4384766,17.0507812 43.1708984,17.0507812 Z M42.8310547,18.0644531 C41.5595703,18.0644531 40.6806641,17.3144531 40.6806641,16.1777344 C40.6806641,15.0644531 41.5419922,14.4199219 43.1123047,14.3203125 L44.8291016,14.2207031 L44.8291016,13.7285156 C44.8291016,13.0019531 44.3427734,12.6035156 43.4931641,12.6035156 C42.8017578,12.6035156 42.2978516,12.9609375 42.1865234,13.5117188 L40.9970703,13.5117188 C41.0322266,12.3867188 42.0986328,11.5546875 43.5283203,11.5546875 C45.0810547,11.5546875 46.0830078,12.375 46.0830078,13.6347656 L46.0830078,18 L44.8701172,18 L44.8701172,16.9394531 L44.8408203,16.9394531 C44.4892578,17.6308594 43.6982422,18.0644531 42.8310547,18.0644531 Z M47.7412109,10.2070312 L47.7412109,11.6367188 L46.8623047,11.6367188 L46.8623047,12.6386719 L47.7412109,12.6386719 L47.7412109,16.3242188 C47.7412109,17.5546875 48.2333984,18.0410156 49.5048828,18.0410156 C49.7802734,18.0410156 50.0791016,18.0117188 50.2197266,17.9765625 L50.2197266,16.9746094 C50.1376953,16.9863281 49.9208984,17.0039062 49.7861328,17.0039062 C49.2529297,17.0039062 49.0068359,16.7460938 49.0068359,16.1953125 L49.0068359,12.6386719 L50.2255859,12.6386719 L50.2255859,11.6367188 L49.0068359,11.6367188 L49.0068359,10.2070312 L47.7412109,10.2070312 Z M53.9462891,12.5917969 C53.0322266,12.5917969 52.3701172,13.2597656 52.2998047,14.2382812 L55.5283203,14.2382812 C55.4990234,13.2480469 54.8720703,12.5917969 53.9462891,12.5917969 Z M55.5224609,16.1367188 L56.7353516,16.1367188 C56.5537109,17.2792969 55.4345703,18.0761719 54.0048828,18.0761719 C52.1591797,18.0761719 51.0107422,16.8339844 51.0107422,14.8417969 C51.0107422,12.8496094 52.1708984,11.5546875 53.9521484,11.5546875 C55.6982422,11.5546875 56.7998047,12.7675781 56.7998047,14.6953125 L56.7998047,15.140625 L52.2939453,15.140625 L52.2939453,15.2167969 C52.2939453,16.3183594 52.9853516,17.0449219 54.0283203,17.0449219 C54.7666016,17.0449219 55.3466797,16.6933594 55.5224609,16.1367188 Z M57.7138672,13.4472656 C57.7138672,14.3261719 58.2822266,14.9121094 59.4306641,15.1933594 L60.5673828,15.4746094 C61.2353516,15.6445312 61.4873047,15.8554688 61.4873047,16.2597656 C61.4873047,16.7753906 60.9892578,17.1035156 60.1982422,17.1035156 C59.3896484,17.1035156 58.8974609,16.7695312 58.7978516,16.1601562 L57.5439453,16.1601562 C57.6376953,17.3085938 58.6513672,18.0761719 60.1337891,18.0761719 C61.6748047,18.0761719 62.7529297,17.2910156 62.7529297,16.1542969 C62.7529297,15.2167969 62.2783203,14.7539062 60.9951172,14.4433594 L59.9404297,14.1914062 C59.2666016,14.0273438 58.9501953,13.7636719 58.9501953,13.3769531 C58.9501953,12.8730469 59.4306641,12.5390625 60.1513672,12.5390625 C60.8779297,12.5390625 61.3642578,12.890625 61.4169922,13.453125 L62.6123047,13.453125 C62.5830078,12.3457031 61.5751953,11.5605469 60.1806641,11.5605469 C58.7158203,11.5605469 57.7138672,12.328125 57.7138672,13.4472656 Z M64.1650391,10.2070312 L64.1650391,11.6367188 L63.2861328,11.6367188 L63.2861328,12.6386719 L64.1650391,12.6386719 L64.1650391,16.3242188 C64.1650391,17.5546875 64.6572266,18.0410156 65.9287109,18.0410156 C66.2041016,18.0410156 66.5029297,18.0117188 66.6435547,17.9765625 L66.6435547,16.9746094 C66.5615234,16.9863281 66.3447266,17.0039062 66.2099609,17.0039062 C65.6767578,17.0039062 65.4306641,16.7460938 65.4306641,16.1953125 L65.4306641,12.6386719 L66.6494141,12.6386719 L66.6494141,11.6367188 L65.4306641,11.6367188 L65.4306641,10.2070312 L64.1650391,10.2070312 Z M71.9287109,10.6464844 L71.9287109,13.6875 L73.8154297,13.6875 C74.8291016,13.6875 75.4150391,13.1308594 75.4150391,12.1640625 C75.4150391,11.2207031 74.7939453,10.6464844 73.7802734,10.6464844 L71.9287109,10.6464844 Z M71.9287109,14.7480469 L71.9287109,18 L70.6162109,18 L70.6162109,9.54492188 L73.9384766,9.54492188 C75.6787109,9.54492188 76.7626953,10.5527344 76.7626953,12.1289062 C76.7626953,13.2714844 76.1533203,14.1972656 75.1220703,14.5429688 L77.0205078,18 L75.5029297,18 L73.7802734,14.7480469 L71.9287109,14.7480469 Z M80.5478516,12.5917969 C79.6337891,12.5917969 78.9716797,13.2597656 78.9013672,14.2382812 L82.1298828,14.2382812 C82.1005859,13.2480469 81.4736328,12.5917969 80.5478516,12.5917969 Z M82.1240234,16.1367188 L83.3369141,16.1367188 C83.1552734,17.2792969 82.0361328,18.0761719 80.6064453,18.0761719 C78.7607422,18.0761719 77.6123047,16.8339844 77.6123047,14.8417969 C77.6123047,12.8496094 78.7724609,11.5546875 80.5537109,11.5546875 C82.2998047,11.5546875 83.4013672,12.7675781 83.4013672,14.6953125 L83.4013672,15.140625 L78.8955078,15.140625 L78.8955078,15.2167969 C78.8955078,16.3183594 79.5869141,17.0449219 80.6298828,17.0449219 C81.3681641,17.0449219 81.9482422,16.6933594 82.1240234,16.1367188 Z M84.4736328,18 L85.7451172,18 L85.7451172,9.1640625 L84.4736328,9.1640625 L84.4736328,18 Z M89.7470703,12.5917969 C88.8330078,12.5917969 88.1708984,13.2597656 88.1005859,14.2382812 L91.3291016,14.2382812 C91.2998047,13.2480469 90.6728516,12.5917969 89.7470703,12.5917969 Z M91.3232422,16.1367188 L92.5361328,16.1367188 C92.3544922,17.2792969 91.2353516,18.0761719 89.8056641,18.0761719 C87.9599609,18.0761719 86.8115234,16.8339844 86.8115234,14.8417969 C86.8115234,12.8496094 87.9716797,11.5546875 89.7529297,11.5546875 C91.4990234,11.5546875 92.6005859,12.7675781 92.6005859,14.6953125 L92.6005859,15.140625 L88.0947266,15.140625 L88.0947266,15.2167969 C88.0947266,16.3183594 88.7861328,17.0449219 89.8291016,17.0449219 C90.5673828,17.0449219 91.1474609,16.6933594 91.3232422,16.1367188 Z M95.8291016,17.0507812 C96.7724609,17.0507812 97.4873047,16.4472656 97.4873047,15.609375 L97.4873047,15.1113281 L95.9404297,15.2167969 C95.0732422,15.2695312 94.6220703,15.5917969 94.6220703,16.1542969 C94.6220703,16.6992188 95.0966797,17.0507812 95.8291016,17.0507812 Z M95.4892578,18.0644531 C94.2177734,18.0644531 93.3388672,17.3144531 93.3388672,16.1777344 C93.3388672,15.0644531 94.2001953,14.4199219 95.7705078,14.3203125 L97.4873047,14.2207031 L97.4873047,13.7285156 C97.4873047,13.0019531 97.0009766,12.6035156 96.1513672,12.6035156 C95.4599609,12.6035156 94.9560547,12.9609375 94.8447266,13.5117188 L93.6552734,13.5117188 C93.6904297,12.3867188 94.7568359,11.5546875 96.1865234,11.5546875 C97.7392578,11.5546875 98.7412109,12.375 98.7412109,13.6347656 L98.7412109,18 L97.5283203,18 L97.5283203,16.9394531 L97.4990234,16.9394531 C97.1474609,17.6308594 96.3564453,18.0644531 95.4892578,18.0644531 Z M99.9130859,13.4472656 C99.9130859,14.3261719 100.481445,14.9121094 101.629883,15.1933594 L102.766602,15.4746094 C103.43457,15.6445312 103.686523,15.8554688 103.686523,16.2597656 C103.686523,16.7753906 103.188477,17.1035156 102.397461,17.1035156 C101.588867,17.1035156 101.09668,16.7695312 100.99707,16.1601562 L99.7431641,16.1601562 C99.8369141,17.3085938 100.850586,18.0761719 102.333008,18.0761719 C103.874023,18.0761719 104.952148,17.2910156 104.952148,16.1542969 C104.952148,15.2167969 104.477539,14.7539062 103.194336,14.4433594 L102.139648,14.1914062 C101.46582,14.0273438 101.149414,13.7636719 101.149414,13.3769531 C101.149414,12.8730469 101.629883,12.5390625 102.350586,12.5390625 C103.077148,12.5390625 103.563477,12.890625 103.616211,13.453125 L104.811523,13.453125 C104.782227,12.3457031 103.774414,11.5605469 102.379883,11.5605469 C100.915039,11.5605469 99.9130859,12.328125 99.9130859,13.4472656 Z M108.631836,12.5917969 C107.717773,12.5917969 107.055664,13.2597656 106.985352,14.2382812 L110.213867,14.2382812 C110.18457,13.2480469 109.557617,12.5917969 108.631836,12.5917969 Z M110.208008,16.1367188 L111.420898,16.1367188 C111.239258,17.2792969 110.120117,18.0761719 108.69043,18.0761719 C106.844727,18.0761719 105.696289,16.8339844 105.696289,14.8417969 C105.696289,12.8496094 106.856445,11.5546875 108.637695,11.5546875 C110.383789,11.5546875 111.485352,12.7675781 111.485352,14.6953125 L111.485352,15.140625 L106.979492,15.140625 L106.979492,15.2167969 C106.979492,16.3183594 107.670898,17.0449219 108.713867,17.0449219 C109.452148,17.0449219 110.032227,16.6933594 110.208008,16.1367188 Z"/><filter id="e" width="101%" height="111.1%" x="-.5%" y="-5.6%" filterUnits="objectBoundingBox"><feGaussianBlur in="SourceAlpha" result="shadowBlurInner1" stdDeviation=".25"/><feOffset dy=".5" in="shadowBlurInner1" result="shadowOffsetInner1"/><feComposite in="shadowOffsetInner1" in2="SourceAlpha" k2="-1" k3="1" operator="arithmetic" result="shadowInnerInner1"/><feColorMatrix in="shadowInnerInner1" values="0 0 0 0 0 0 0 0 0 0 0 0 0 0 0 0 0 0 0.302423007 0"/></filter></defs><g fill="none" fill-rule="evenodd"><use fill="url(#a)" xlink:href="#b"/><rect width="123.5" height="27.5" x=".25" y=".25" stroke="#8D8D8D" stroke-width=".5" rx="6"/><g><use fill="url(#c)" xlink:href="#d"/><use fill="#000" filter="url(#e)" xlink:href="#d"/></g></g></svg>